<!--?xml version="1.0" standalone="no"?-->
              <svg id="sw-js-blob-svg" viewBox="0 0 100 100" xmlns="http://www.w3.org/2000/svg" version="1.1">
                    <defs> 
                        <linearGradient id="sw-gradient" x1="0" x2="1" y1="1" y2="0">
                            <stop id="stop1" stop-color="rgba(248, 117, 55, 1)" offset="0%"></stop>
                            <stop id="stop2" stop-color="rgba(251, 168, 31, 1)" offset="100%"></stop>
                        </linearGradient>
                    </defs>
                <path fill="url(#sw-gradient)" d="M22.6,-31.5C25.8,-24.3,22.4,-13.8,23.3,-4.7C24.2,4.5,29.5,12.3,28.2,18.1C27,23.9,19.2,27.6,12.4,27.2C5.5,26.7,-0.4,22.1,-9,20.7C-17.7,19.4,-29,21.3,-35.5,17.1C-42.1,12.9,-43.8,2.4,-42.2,-7.7C-40.7,-17.7,-35.9,-27.4,-28.4,-33.9C-20.8,-40.3,-10.4,-43.4,-0.3,-43C9.7,-42.6,19.5,-38.7,22.6,-31.5Z" width="100%" height="100%" transform="translate(50 50)" stroke-width="0" style="transition: all 0.3s ease 0s;"></path>
              </svg>